# xmcd
# Track frame offsets:
# 150
# 15531
# 27927
# 39847
# 53272
# 70209
# 80930
# 94729
# 107047
# 119480
# 132203
# 146316
# 159060
# 177934
#
# Disc length: 2545 seconds
# Revision: 0
# Processed by: cddbd v1.4PL0 Copyright (c) Steve Scherf et al.
# Submitted via: VisiTrax 2.9.5.180 - For more info visit www.synapsa.com
#
DISCID=a909ef0e
DTITLE=Diana Kelley - Where I used to be
DYEAR=1900
DGENRE=
TTITLE0=Love breakdown
TTITLE1=A misty morning memory
TTITLE2=Tell your memory to leave us alone
TTITLE3=Treat me like a lady
TTITLE4=Where I used to be
TTITLE5=Love is where you leave our heart
TTITLE6=Makin' love to you
TTITLE7=I'm doin' fine
TTITLE8=I see hurt in your eyes
TTITLE9=Gone with the wind
TTITLE10=A new point of view
TTITLE11=Toodle OO
TTITLE12=Don't believe his eyes
TTITLE13=Good morning and goodbye
EXTD=
EXTT0=
EXTT1=
EXTT2=
EXTT3=
EXTT4=
EXTT5=
EXTT6=
EXTT7=
EXTT8=
EXTT9=
EXTT10=
EXTT11=
EXTT12=
EXTT13=
PLAYORDER=
